<svg width="131" height="18" viewBox="0 0 131 18" fill="none" xmlns="http://www.w3.org/2000/svg">
<path d="M7.45456 13.9849L4.2845 10.764C4.21497 10.6937 4.17598 10.5989 4.17598 10.5C4.17598 10.4011 4.21497 10.3063 4.2845 10.236L7.45388 7.01506C7.52336 6.94434 7.5623 6.84917 7.5623 6.75003C7.5623 6.65088 7.52336 6.55571 7.45388 6.48499C7.41993 6.45017 7.37936 6.4225 7.33455 6.40361C7.28974 6.38471 7.2416 6.37498 7.19297 6.37498C7.14434 6.37498 7.0962 6.38471 7.05139 6.40361C7.00658 6.4225 6.96601 6.45017 6.93206 6.48499L3.76269 9.70524C3.55443 9.91735 3.43774 10.2027 3.43774 10.5C3.43774 10.7973 3.55443 11.0826 3.76269 11.2947L6.93206 14.515C6.96602 14.5499 7.00664 14.5777 7.05151 14.5966C7.09638 14.6156 7.1446 14.6254 7.19331 14.6254C7.24203 14.6254 7.29024 14.6156 7.33512 14.5966C7.37999 14.5777 7.42061 14.5499 7.45456 14.515C7.52405 14.4443 7.56299 14.3491 7.56299 14.25C7.56299 14.1508 7.52405 14.0556 7.45456 13.9849Z" fill="#848383"/>
<path d="M17.0578 14V6.98H19.9503C20.0976 6.98 20.2753 6.98867 20.4833 7.006C20.6956 7.02333 20.8928 7.05583 21.0748 7.1035C21.4691 7.2075 21.7854 7.41983 22.0238 7.7405C22.2664 8.06117 22.3878 8.44683 22.3878 8.8975C22.3878 9.14883 22.3488 9.37417 22.2708 9.5735C22.1971 9.7685 22.0909 9.9375 21.9523 10.0805C21.8873 10.1542 21.8158 10.2192 21.7378 10.2755C21.6598 10.3275 21.5839 10.3708 21.5103 10.4055C21.6489 10.4315 21.7984 10.4922 21.9588 10.5875C22.2101 10.7348 22.4008 10.9342 22.5308 11.1855C22.6608 11.4325 22.7258 11.7337 22.7258 12.089C22.7258 12.57 22.6109 12.9622 22.3813 13.2655C22.1516 13.5688 21.8439 13.7768 21.4583 13.8895C21.2849 13.9372 21.0964 13.9675 20.8928 13.9805C20.6934 13.9935 20.5049 14 20.3273 14H17.0578ZM18.0198 13.1875H20.2818C20.3728 13.1875 20.4876 13.181 20.6263 13.168C20.7649 13.1507 20.8884 13.129 20.9968 13.103C21.2524 13.038 21.4388 12.908 21.5558 12.713C21.6771 12.5137 21.7378 12.297 21.7378 12.063C21.7378 11.7553 21.6468 11.504 21.4648 11.309C21.2871 11.1097 21.0488 10.9883 20.7498 10.945C20.6501 10.9233 20.5461 10.9103 20.4378 10.906C20.3294 10.9017 20.2319 10.8995 20.1453 10.8995H18.0198V13.1875ZM18.0198 10.0805H19.9828C20.0954 10.0805 20.2211 10.074 20.3598 10.061C20.5028 10.0437 20.6263 10.0155 20.7303 9.9765C20.9556 9.8985 21.1203 9.76417 21.2243 9.5735C21.3326 9.38283 21.3868 9.17483 21.3868 8.9495C21.3868 8.7025 21.3283 8.48583 21.2113 8.2995C21.0986 8.11317 20.9274 7.98317 20.6978 7.9095C20.5418 7.85317 20.3728 7.82067 20.1908 7.812C20.0131 7.80333 19.9004 7.799 19.8528 7.799H18.0198V10.0805ZM27.7718 14.195C27.0871 14.195 26.4935 14.0433 25.9908 13.74C25.4925 13.4367 25.1046 13.0098 24.8273 12.4595C24.55 11.9092 24.4113 11.2635 24.4113 10.5225C24.4113 9.7555 24.5478 9.0925 24.8208 8.5335C25.0938 7.9745 25.4773 7.54333 25.9713 7.24C26.4696 6.93667 27.0568 6.785 27.7328 6.785C28.4261 6.785 29.0176 6.94533 29.5073 7.266C29.997 7.58233 30.3675 8.03733 30.6188 8.631C30.8701 9.22467 30.985 9.93317 30.9633 10.7565H29.9883V10.4185C29.971 9.5085 29.7738 8.82167 29.3968 8.358C29.0241 7.89433 28.4781 7.6625 27.7588 7.6625C27.0048 7.6625 26.4263 7.90733 26.0233 8.397C25.6246 8.88667 25.4253 9.58433 25.4253 10.49C25.4253 11.374 25.6246 12.0608 26.0233 12.5505C26.4263 13.0358 26.9961 13.2785 27.7328 13.2785C28.2355 13.2785 28.6731 13.1637 29.0458 12.934C29.4228 12.7 29.7196 12.3642 29.9363 11.9265L30.8268 12.271C30.5495 12.882 30.14 13.3565 29.5983 13.6945C29.061 14.0282 28.4521 14.195 27.7718 14.195ZM25.0873 10.7565V9.957H30.4498V10.7565H25.0873ZM36.3383 14.195C35.6926 14.195 35.1466 14.0325 34.7003 13.7075C34.2539 13.3782 33.9159 12.934 33.6863 12.375C33.4566 11.8117 33.3418 11.1812 33.3418 10.4835C33.3418 9.77283 33.4566 9.14017 33.6863 8.5855C33.9203 8.0265 34.2626 7.58667 34.7133 7.266C35.1639 6.94533 35.7186 6.785 36.3773 6.785C37.0186 6.785 37.5689 6.9475 38.0283 7.2725C38.4876 7.5975 38.8386 8.0395 39.0813 8.5985C39.3283 9.1575 39.4518 9.78583 39.4518 10.4835C39.4518 11.1855 39.3283 11.816 39.0813 12.375C38.8343 12.934 38.4789 13.3782 38.0153 13.7075C37.5516 14.0325 36.9926 14.195 36.3383 14.195ZM33.1793 17.12V6.98H34.0373V12.2645H34.1413V17.12H33.1793ZM36.2408 13.3045C36.7304 13.3045 37.1378 13.181 37.4628 12.934C37.7878 12.687 38.0304 12.3512 38.1908 11.9265C38.3554 11.4975 38.4378 11.0165 38.4378 10.4835C38.4378 9.95483 38.3576 9.47817 38.1973 9.0535C38.0369 8.62883 37.7921 8.293 37.4628 8.046C37.1378 7.799 36.7239 7.6755 36.2213 7.6755C35.7316 7.6755 35.3243 7.79467 34.9993 8.033C34.6786 8.27133 34.4381 8.60283 34.2778 9.0275C34.1174 9.44783 34.0373 9.93317 34.0373 10.4835C34.0373 11.0252 34.1174 11.5105 34.2778 11.9395C34.4381 12.3642 34.6808 12.6978 35.0058 12.9405C35.3308 13.1832 35.7424 13.3045 36.2408 13.3045ZM41.6526 14V6.98H42.6081V10.0285H46.5666V6.98H47.5221V14H46.5666V10.945H42.6081V14H41.6526ZM51.1208 17.12L52.4793 13.4345L52.4988 14.5265L49.4243 6.98H50.4383L52.9603 13.2915H52.5443L54.8713 6.98H55.8463L52.0763 17.12H51.1208ZM59.6598 14V7.864H57.1703V6.98H63.1048V7.864H60.6153V14H59.6598ZM65.1306 14L65.1176 6.98H66.0796V9.6255H67.7241C67.9278 9.6255 68.1271 9.62983 68.3221 9.6385C68.5215 9.64717 68.697 9.6645 68.8486 9.6905C69.1953 9.7555 69.503 9.87033 69.7716 10.035C70.0446 10.1997 70.257 10.4272 70.4086 10.7175C70.5646 11.0078 70.6426 11.3718 70.6426 11.8095C70.6426 12.4118 70.4866 12.8863 70.1746 13.233C69.867 13.5797 69.477 13.805 69.0046 13.909C68.827 13.948 68.6341 13.974 68.4261 13.987C68.2181 13.9957 68.0123 14 67.8086 14H65.1306ZM66.0796 13.181H67.7696C67.917 13.181 68.0816 13.1767 68.2636 13.168C68.4456 13.1593 68.606 13.1355 68.7446 13.0965C68.9743 13.0315 69.1823 12.9015 69.3686 12.7065C69.5593 12.5072 69.6546 12.2082 69.6546 11.8095C69.6546 11.4152 69.5636 11.1183 69.3816 10.919C69.1996 10.7153 68.957 10.581 68.6536 10.516C68.5193 10.4857 68.3741 10.4662 68.2181 10.4575C68.0621 10.4488 67.9126 10.4445 67.7696 10.4445H66.0796V13.181ZM75.7605 14.195C75.0541 14.195 74.4561 14.0368 73.9665 13.7205C73.4768 13.4042 73.1041 12.9687 72.8485 12.414C72.5971 11.855 72.4671 11.2137 72.4585 10.49C72.4671 9.75333 72.6015 9.10767 72.8615 8.553C73.1215 7.994 73.4963 7.56067 73.986 7.253C74.4756 6.941 75.0693 6.785 75.767 6.785C76.4776 6.785 77.0951 6.95833 77.6195 7.305C78.1481 7.65167 78.51 8.12617 78.705 8.7285L77.769 9.0275C77.6043 8.60717 77.3421 8.28217 76.9825 8.0525C76.6271 7.8185 76.2198 7.7015 75.7605 7.7015C75.2448 7.7015 74.818 7.82067 74.48 8.059C74.142 8.293 73.8906 8.62017 73.726 9.0405C73.5613 9.46083 73.4768 9.944 73.4725 10.49C73.4811 11.3307 73.6761 12.0067 74.0575 12.518C74.4388 13.025 75.0065 13.2785 75.7605 13.2785C76.2371 13.2785 76.6423 13.1702 76.976 12.9535C77.314 12.7325 77.5696 12.4118 77.743 11.9915L78.705 12.2775C78.445 12.9015 78.0636 13.3782 77.561 13.7075C77.0583 14.0325 76.4581 14.195 75.7605 14.195ZM85.1891 14V11.3545H83.5511C83.3605 11.3545 83.1633 11.348 82.9596 11.335C82.7603 11.3177 82.574 11.2938 82.4006 11.2635C81.9066 11.1682 81.4863 10.9515 81.1396 10.6135C80.7973 10.2712 80.6261 9.79883 80.6261 9.1965C80.6261 8.60717 80.7865 8.13483 81.1071 7.7795C81.4278 7.41983 81.8156 7.18583 82.2706 7.0775C82.4786 7.02983 82.6888 7.00167 82.9011 6.993C83.1178 6.98433 83.3041 6.98 83.4601 6.98H86.1446L86.1511 14H85.1891ZM80.3986 14L82.3551 11.0555H83.4146L81.4451 14H80.3986ZM83.4991 10.5355H85.1891V7.799H83.4991C83.3951 7.799 83.25 7.80333 83.0636 7.812C82.8773 7.82067 82.7018 7.84883 82.5371 7.8965C82.3941 7.93983 82.2511 8.01567 82.1081 8.124C81.9695 8.228 81.8525 8.36883 81.7571 8.5465C81.6618 8.71983 81.6141 8.93217 81.6141 9.1835C81.6141 9.5345 81.7095 9.81617 81.9001 10.0285C82.0951 10.2365 82.3378 10.3795 82.6281 10.4575C82.7841 10.4922 82.9401 10.5138 83.0961 10.5225C83.2521 10.5312 83.3865 10.5355 83.4991 10.5355ZM92.1302 14V6.98H93.0857V10.0285H97.0442V6.98H97.9997V14H97.0442V10.945H93.0857V14H92.1302ZM102.606 14.195C102.077 14.195 101.633 14.0997 101.273 13.909C100.918 13.7183 100.652 13.4648 100.474 13.1485C100.296 12.8322 100.207 12.4877 100.207 12.115C100.207 11.7337 100.283 11.4087 100.435 11.14C100.591 10.867 100.801 10.6438 101.065 10.4705C101.334 10.2972 101.644 10.165 101.995 10.074C102.35 9.98733 102.742 9.9115 103.171 9.8465C103.605 9.77717 104.027 9.71867 104.439 9.671C104.855 9.619 105.219 9.56917 105.531 9.5215L105.193 9.7295C105.206 9.03617 105.072 8.52267 104.79 8.189C104.508 7.85533 104.019 7.6885 103.321 7.6885C102.84 7.6885 102.433 7.79683 102.099 8.0135C101.77 8.23017 101.538 8.5725 101.403 9.0405L100.474 8.7675C100.634 8.13917 100.957 7.65167 101.442 7.305C101.928 6.95833 102.558 6.785 103.334 6.785C103.975 6.785 104.519 6.90633 104.965 7.149C105.416 7.38733 105.735 7.734 105.921 8.189C106.008 8.39267 106.064 8.62017 106.09 8.8715C106.116 9.12283 106.129 9.3785 106.129 9.6385V14H105.277V12.2385L105.524 12.3425C105.286 12.9448 104.916 13.4042 104.413 13.7205C103.91 14.0368 103.308 14.195 102.606 14.195ZM102.716 13.3695C103.163 13.3695 103.553 13.2893 103.886 13.129C104.22 12.9687 104.489 12.7498 104.692 12.4725C104.896 12.1908 105.028 11.8745 105.089 11.5235C105.141 11.2982 105.169 11.0512 105.173 10.7825C105.178 10.5095 105.18 10.3058 105.18 10.1715L105.544 10.36C105.219 10.4033 104.866 10.4467 104.484 10.49C104.107 10.5333 103.735 10.5832 103.366 10.6395C103.002 10.6958 102.673 10.763 102.378 10.841C102.179 10.8973 101.986 10.9775 101.8 11.0815C101.614 11.1812 101.46 11.3155 101.338 11.4845C101.221 11.6535 101.163 11.8637 101.163 12.115C101.163 12.3187 101.213 12.5158 101.312 12.7065C101.416 12.8972 101.581 13.0553 101.806 13.181C102.036 13.3067 102.339 13.3695 102.716 13.3695ZM111.13 14.195C110.423 14.195 109.806 14.0412 109.277 13.7335C108.753 13.4215 108.339 12.9903 108.036 12.44L108.803 11.9525C109.058 12.3858 109.377 12.7152 109.758 12.9405C110.139 13.1658 110.577 13.2785 111.071 13.2785C111.587 13.2785 112.001 13.1593 112.313 12.921C112.625 12.6827 112.781 12.3555 112.781 11.9395C112.781 11.6535 112.713 11.426 112.579 11.257C112.449 11.088 112.25 10.9667 111.981 10.893C111.717 10.8193 111.385 10.7825 110.987 10.7825H110.155V9.9635H110.974C111.459 9.9635 111.849 9.87683 112.144 9.7035C112.443 9.52583 112.592 9.2485 112.592 8.8715C112.592 8.47283 112.443 8.17817 112.144 7.9875C111.849 7.7925 111.496 7.695 111.084 7.695C110.668 7.695 110.274 7.78167 109.901 7.955C109.533 8.124 109.223 8.34283 108.972 8.6115L108.361 7.968C108.712 7.58233 109.121 7.28983 109.589 7.0905C110.061 6.88683 110.584 6.785 111.156 6.785C111.606 6.785 112.014 6.86517 112.378 7.0255C112.746 7.1815 113.036 7.41117 113.249 7.7145C113.465 8.01783 113.574 8.38183 113.574 8.8065C113.574 9.20517 113.476 9.54967 113.281 9.84C113.09 10.1303 112.82 10.3708 112.469 10.5615L112.417 10.204C112.72 10.2603 112.971 10.3817 113.171 10.568C113.37 10.7543 113.517 10.9775 113.613 11.2375C113.708 11.4975 113.756 11.7618 113.756 12.0305C113.756 12.4768 113.639 12.8625 113.405 13.1875C113.175 13.5082 112.861 13.7573 112.462 13.935C112.068 14.1083 111.624 14.195 111.13 14.195ZM117.978 14.195C117.45 14.195 117.006 14.0997 116.646 13.909C116.291 13.7183 116.024 13.4648 115.846 13.1485C115.669 12.8322 115.58 12.4877 115.58 12.115C115.58 11.7337 115.656 11.4087 115.807 11.14C115.963 10.867 116.174 10.6438 116.438 10.4705C116.707 10.2972 117.016 10.165 117.367 10.074C117.723 9.98733 118.115 9.9115 118.544 9.8465C118.977 9.77717 119.4 9.71867 119.811 9.671C120.227 9.619 120.591 9.56917 120.903 9.5215L120.565 9.7295C120.578 9.03617 120.444 8.52267 120.162 8.189C119.881 7.85533 119.391 7.6885 118.693 7.6885C118.212 7.6885 117.805 7.79683 117.471 8.0135C117.142 8.23017 116.91 8.5725 116.776 9.0405L115.846 8.7675C116.007 8.13917 116.33 7.65167 116.815 7.305C117.3 6.95833 117.931 6.785 118.706 6.785C119.348 6.785 119.892 6.90633 120.338 7.149C120.789 7.38733 121.107 7.734 121.293 8.189C121.38 8.39267 121.436 8.62017 121.462 8.8715C121.488 9.12283 121.501 9.3785 121.501 9.6385V14H120.65V12.2385L120.897 12.3425C120.659 12.9448 120.288 13.4042 119.785 13.7205C119.283 14.0368 118.68 14.195 117.978 14.195ZM118.089 13.3695C118.535 13.3695 118.925 13.2893 119.259 13.129C119.593 12.9687 119.861 12.7498 120.065 12.4725C120.269 12.1908 120.401 11.8745 120.461 11.5235C120.513 11.2982 120.542 11.0512 120.546 10.7825C120.55 10.5095 120.552 10.3058 120.552 10.1715L120.916 10.36C120.591 10.4033 120.238 10.4467 119.857 10.49C119.48 10.5333 119.107 10.5832 118.739 10.6395C118.375 10.6958 118.046 10.763 117.751 10.841C117.552 10.8973 117.359 10.9775 117.172 11.0815C116.986 11.1812 116.832 11.3155 116.711 11.4845C116.594 11.6535 116.535 11.8637 116.535 12.115C116.535 12.3187 116.585 12.5158 116.685 12.7065C116.789 12.8972 116.954 13.0553 117.179 13.181C117.409 13.3067 117.712 13.3695 118.089 13.3695ZM123.454 15.56V13.181C123.852 13.181 124.138 13.0532 124.312 12.7975C124.485 12.5375 124.626 12.1237 124.734 11.556C124.808 11.1877 124.868 10.7912 124.916 10.3665C124.964 9.94183 125.005 9.4565 125.04 8.9105C125.074 8.36017 125.107 7.71667 125.137 6.98H129.778V13.181H130.454V15.56H129.531V14H124.37V15.56H123.454ZM125.072 13.181H128.829V7.799H126.021C126.008 8.12833 125.989 8.47717 125.963 8.8455C125.941 9.21383 125.913 9.58217 125.878 9.9505C125.848 10.3188 125.811 10.6655 125.768 10.9905C125.729 11.3112 125.681 11.5928 125.625 11.8355C125.56 12.1475 125.488 12.414 125.41 12.635C125.336 12.856 125.224 13.038 125.072 13.181Z" fill="#A0A0A0"/>
</svg>
