<svg width="379" height="42" viewBox="0 0 379 42" fill="none" xmlns="http://www.w3.org/2000/svg">
<path d="M18.0965 26H17.1345V18.3235L11.98 26H11.018V16.64H11.98V24.31L17.1345 16.64H18.0965V26ZM22.6019 26V19.864H20.1124V18.98H26.0469V19.864H23.5574V26H22.6019ZM30.8708 26.195C30.1731 26.195 29.5773 26.0368 29.0833 25.7205C28.5893 25.4042 28.2101 24.9665 27.9458 24.4075C27.6815 23.8485 27.5493 23.2072 27.5493 22.4835C27.5493 21.7468 27.6836 21.1012 27.9523 20.5465C28.221 19.9918 28.6023 19.5607 29.0963 19.253C29.5946 18.941 30.1861 18.785 30.8708 18.785C31.5728 18.785 32.1708 18.9432 32.6648 19.2595C33.1631 19.5715 33.5423 20.007 33.8023 20.566C34.0666 21.1207 34.1988 21.7598 34.1988 22.4835C34.1988 23.2202 34.0666 23.868 33.8023 24.427C33.538 24.9817 33.1566 25.415 32.6583 25.727C32.16 26.039 31.5641 26.195 30.8708 26.195ZM30.8708 25.2785C31.6508 25.2785 32.2315 25.0207 32.6128 24.505C32.9941 23.985 33.1848 23.3112 33.1848 22.4835C33.1848 21.6342 32.992 20.9582 32.6063 20.4555C32.225 19.9528 31.6465 19.7015 30.8708 19.7015C30.3465 19.7015 29.9131 19.8207 29.5708 20.059C29.2328 20.293 28.9793 20.6202 28.8103 21.0405C28.6456 21.4565 28.5633 21.9375 28.5633 22.4835C28.5633 23.3285 28.7583 24.0067 29.1483 24.518C29.5383 25.025 30.1125 25.2785 30.8708 25.2785ZM36.4127 26V18.98H41.2227V19.8965H37.3682V26H36.4127ZM46.0402 26.195C45.3425 26.195 44.7467 26.0368 44.2527 25.7205C43.7587 25.4042 43.3795 24.9665 43.1152 24.4075C42.8508 23.8485 42.7187 23.2072 42.7187 22.4835C42.7187 21.7468 42.853 21.1012 43.1217 20.5465C43.3903 19.9918 43.7717 19.5607 44.2657 19.253C44.764 18.941 45.3555 18.785 46.0402 18.785C46.7422 18.785 47.3402 18.9432 47.8342 19.2595C48.3325 19.5715 48.7117 20.007 48.9717 20.566C49.236 21.1207 49.3682 21.7598 49.3682 22.4835C49.3682 23.2202 49.236 23.868 48.9717 24.427C48.7073 24.9817 48.326 25.415 47.8277 25.727C47.3293 26.039 46.7335 26.195 46.0402 26.195ZM46.0402 25.2785C46.8202 25.2785 47.4008 25.0207 47.7822 24.505C48.1635 23.985 48.3542 23.3112 48.3542 22.4835C48.3542 21.6342 48.1613 20.9582 47.7757 20.4555C47.3943 19.9528 46.8158 19.7015 46.0402 19.7015C45.5158 19.7015 45.0825 19.8207 44.7402 20.059C44.4022 20.293 44.1487 20.6202 43.9797 21.0405C43.815 21.4565 43.7327 21.9375 43.7327 22.4835C43.7327 23.3285 43.9277 24.0067 44.3177 24.518C44.7077 25.025 45.2818 25.2785 46.0402 25.2785Z" fill="black"/>
<path d="M328.74 26V17.706L326.979 18.7655V17.693L328.74 16.64H329.709V26H328.74ZM334.586 26V17.706L332.824 18.7655V17.693L334.586 16.64H335.554V26H334.586ZM341.315 26.1885C340.852 26.1885 340.425 26.1062 340.035 25.9415C339.645 25.7768 339.309 25.5428 339.027 25.2395C338.746 24.9318 338.54 24.5657 338.41 24.141L339.32 23.868C339.476 24.3317 339.731 24.6827 340.087 24.921C340.446 25.1593 340.852 25.2742 341.302 25.2655C341.718 25.2568 342.076 25.1637 342.375 24.986C342.678 24.8083 342.91 24.5613 343.07 24.245C343.231 23.9287 343.311 23.5625 343.311 23.1465C343.311 22.5095 343.124 21.9982 342.752 21.6125C342.383 21.2225 341.896 21.0275 341.289 21.0275C341.12 21.0275 340.943 21.0513 340.756 21.099C340.57 21.1423 340.397 21.2052 340.236 21.2875L339.755 20.527L343.395 17.1665L343.551 17.5565H338.78V16.64H344.188V17.5695L341.016 20.5985L341.003 20.2215C341.653 20.1392 342.225 20.2128 342.719 20.4425C343.213 20.6722 343.599 21.0232 343.876 21.4955C344.158 21.9635 344.299 22.5138 344.299 23.1465C344.299 23.7445 344.169 24.2732 343.909 24.7325C343.653 25.1875 343.3 25.545 342.849 25.805C342.399 26.0607 341.887 26.1885 341.315 26.1885ZM349.846 16.4515C350.436 16.4515 350.969 16.5945 351.445 16.8805C351.926 17.1622 352.308 17.5478 352.589 18.0375C352.871 18.5228 353.012 19.0688 353.012 19.6755V22.9255C353.012 23.5495 352.871 24.1085 352.589 24.6025C352.308 25.0965 351.922 25.4865 351.432 25.7725C350.947 26.0542 350.394 26.195 349.775 26.195C349.242 26.195 348.748 26.078 348.293 25.844C347.842 25.6057 347.469 25.2785 347.175 24.8625L347.903 24.258C348.102 24.5657 348.366 24.8127 348.696 24.999C349.029 25.1853 349.389 25.2785 349.775 25.2785C350.217 25.2785 350.607 25.1745 350.945 24.9665C351.287 24.7542 351.556 24.4768 351.751 24.1345C351.95 23.7878 352.05 23.413 352.05 23.01V20.969L352.284 21.242C352.015 21.671 351.658 22.0177 351.211 22.282C350.769 22.5463 350.284 22.6785 349.755 22.6785C349.179 22.6785 348.657 22.5398 348.189 22.2625C347.725 21.9852 347.357 21.6125 347.084 21.1445C346.815 20.6765 346.681 20.1543 346.681 19.578C346.681 19.0017 346.824 18.4773 347.11 18.005C347.396 17.5283 347.779 17.1513 348.26 16.874C348.741 16.5923 349.27 16.4515 349.846 16.4515ZM349.846 17.3745C349.439 17.3745 349.068 17.4742 348.735 17.6735C348.401 17.8685 348.135 18.1328 347.935 18.4665C347.74 18.8002 347.643 19.1707 347.643 19.578C347.643 19.9853 347.74 20.3558 347.935 20.6895C348.13 21.0232 348.395 21.2897 348.728 21.489C349.062 21.684 349.432 21.7815 349.84 21.7815C350.247 21.7815 350.618 21.684 350.951 21.489C351.289 21.2897 351.556 21.0232 351.751 20.6895C351.95 20.3558 352.05 19.9853 352.05 19.578C352.05 19.175 351.95 18.8067 351.751 18.473C351.556 18.1393 351.291 17.8728 350.958 17.6735C350.624 17.4742 350.254 17.3745 349.846 17.3745ZM358.989 22.3925V21.528H363.442C363.516 21.528 363.604 21.5237 363.708 21.515C363.812 21.5063 363.919 21.4912 364.027 21.4695C364.495 21.3655 364.844 21.1358 365.073 20.7805C365.307 20.4208 365.424 20.0135 365.424 19.5585C365.424 19.2638 365.375 18.98 365.275 18.707C365.175 18.434 365.021 18.2 364.813 18.005C364.605 17.81 364.343 17.6778 364.027 17.6085C363.923 17.5825 363.817 17.5673 363.708 17.563C363.6 17.5587 363.511 17.5565 363.442 17.5565H360.725V16.64H363.468C363.542 16.64 363.635 16.6443 363.747 16.653C363.864 16.6573 363.992 16.6703 364.131 16.692C364.616 16.77 365.028 16.9412 365.366 17.2055C365.708 17.4655 365.966 17.797 366.139 18.2C366.317 18.603 366.406 19.0493 366.406 19.539C366.406 20.267 366.211 20.8845 365.821 21.3915C365.435 21.8985 364.872 22.2148 364.131 22.3405C363.992 22.3578 363.864 22.3708 363.747 22.3795C363.635 22.3882 363.542 22.3925 363.468 22.3925H358.989ZM358.989 24.414V23.595H364.014V24.414H358.989ZM359.984 26V16.64H360.939V26H359.984Z" fill="black"/>
<rect x="0.5" y="0.5" width="378" height="41" rx="9.5" stroke="#B3B3B3"/>
</svg>
