<svg width="28" height="28" viewBox="0 0 28 28" fill="none" xmlns="http://www.w3.org/2000/svg">
<path d="M14 27C6.83675 27 0.986757 21.15 1.00002 13.9867C1.01329 6.82347 6.83675 1 14 1C21.1765 1 27.0132 6.85 27 14.0133C26.9867 21.1765 21.1633 27 14 27ZM25.0102 14C25.0102 7.93775 20.0622 2.9898 14 2.9898C7.9245 2.9898 2.98981 7.93775 2.98981 14C2.98981 20.0622 7.93777 25.0102 14 25.0102C20.0755 25.0102 25.0102 20.0622 25.0102 14Z" fill="#FFE15A" stroke="#FFE15A" stroke-width="0.7"/>
<path d="M13.9641 18C12.7634 18 11.5627 18 10.3724 18C9.77204 18 9.55467 17.8517 9.38905 17.3329C8.94397 15.9337 8.49888 14.5345 8.06414 13.1261C8.01239 12.9501 7.98134 12.7555 8.01239 12.5794C8.0952 12.1902 8.54028 11.9957 9.00607 12.1069C9.69958 12.2736 10.3827 12.4312 11.0762 12.6165C11.2626 12.6628 11.3557 12.6257 11.4592 12.496C12.0699 11.7733 12.691 11.0691 13.312 10.3556C13.7261 9.88303 14.2643 9.88303 14.668 10.3463C15.289 11.0598 15.9101 11.7733 16.5208 12.4868C16.645 12.6443 16.7589 12.6535 16.9555 12.6072C17.618 12.4312 18.2804 12.2736 18.9429 12.1161C19.6468 11.9493 20.154 12.3941 19.9573 13.0242C19.5019 14.4789 19.0257 15.9244 18.5599 17.3792C18.415 17.8239 18.1769 17.9907 17.6594 17.9907C16.438 17.9907 15.2062 17.9907 13.9641 18C13.9641 17.9907 13.9641 17.9907 13.9641 18ZM9.91695 13.7747C9.91695 13.8396 9.9066 13.8581 9.91695 13.8859C10.1861 14.7384 10.4655 15.5909 10.7243 16.4433C10.7761 16.6008 10.8692 16.6101 11.0038 16.6101C12.9912 16.6101 14.9889 16.6101 16.9762 16.6101C17.1419 16.6101 17.2143 16.573 17.2661 16.4248C17.5145 15.6186 17.7733 14.8125 18.032 14.0064C18.0527 13.9415 18.0631 13.8767 18.0838 13.784C17.5973 13.9044 17.1522 14.0064 16.7071 14.1268C16.2827 14.238 15.9515 14.1361 15.6927 13.8211C15.1959 13.2373 14.6887 12.6628 14.1919 12.0791C14.1297 12.0049 14.0676 11.9401 13.9952 11.8567C13.4259 12.5238 12.8669 13.1632 12.3183 13.8025C11.9975 14.1732 11.7594 14.2473 11.2626 14.1176C10.8175 13.9971 10.3827 13.8859 9.91695 13.7747Z" fill="#FFE15A"/>
</svg>
