<svg width="149" height="28" viewBox="0 0 149 28" fill="none" xmlns="http://www.w3.org/2000/svg">
<path d="M13.0521 1.35826C13.2555 0.861037 13.9596 0.861036 14.1629 1.35826L18.0778 10.933C18.0984 10.9833 18.1256 11.0305 18.1589 11.0734L24.4934 19.2512C24.8223 19.6759 24.4703 20.2857 23.938 20.2131L13.6885 18.8162C13.6348 18.8088 13.5803 18.8088 13.5265 18.8162L3.27704 20.2131C2.74477 20.2857 2.39271 19.6759 2.72167 19.2512L9.05618 11.0734C9.08941 11.0305 9.11667 10.9833 9.13721 10.933L13.0521 1.35826Z" fill="#FFE15A"/>
<path d="M43.4686 1.35826C43.6719 0.861037 44.376 0.861036 44.5793 1.35826L48.4943 10.933C48.5148 10.9833 48.5421 11.0305 48.5753 11.0734L54.9098 19.2512C55.2388 19.6759 54.8867 20.2857 54.3544 20.2131L44.105 18.8162C44.0512 18.8088 43.9967 18.8088 43.9429 18.8162L33.6935 20.2131C33.1612 20.2857 32.8092 19.6759 33.1381 19.2512L39.4726 11.0734C39.5059 11.0305 39.5331 10.9833 39.5536 10.933L43.4686 1.35826Z" fill="#FFE15A"/>
<path d="M73.8858 1.35826C74.0891 0.861037 74.7933 0.861036 74.9966 1.35826L78.9115 10.933C78.932 10.9833 78.9593 11.0305 78.9925 11.0734L85.327 19.2512C85.656 19.6759 85.3039 20.2857 84.7717 20.2131L74.5222 18.8162C74.4685 18.8088 74.4139 18.8088 74.3602 18.8162L64.1107 20.2131C63.5785 20.2857 63.2264 19.6759 63.5553 19.2512L69.8899 11.0734C69.9231 11.0305 69.9503 10.9833 69.9709 10.933L73.8858 1.35826Z" fill="#FFE15A"/>
<path d="M104.302 1.35826C104.505 0.861037 105.209 0.861036 105.413 1.35826L109.328 10.933C109.348 10.9833 109.375 11.0305 109.409 11.0734L115.743 19.2512C116.072 19.6759 115.72 20.2857 115.188 20.2131L104.938 18.8162C104.885 18.8088 104.83 18.8088 104.776 18.8162L94.5268 20.2131C93.9945 20.2857 93.6425 19.6759 93.9714 19.2512L100.306 11.0734C100.339 11.0305 100.366 10.9833 100.387 10.933L104.302 1.35826Z" fill="#FFE15A"/>
<path d="M134.719 1.35826C134.923 0.861037 135.627 0.861036 135.83 1.35826L139.745 10.933C139.766 10.9833 139.793 11.0305 139.826 11.0734L146.161 19.2512C146.49 19.6759 146.138 20.2857 145.605 20.2131L135.356 18.8162C135.302 18.8088 135.248 18.8088 135.194 18.8162L124.944 20.2131C124.412 20.2857 124.06 19.6759 124.389 19.2512L130.723 11.0734C130.757 11.0305 130.784 10.9833 130.805 10.933L134.719 1.35826Z" fill="white"/>
</svg>
