<svg width="98" height="29" viewBox="0 0 98 29" fill="none" xmlns="http://www.w3.org/2000/svg">
<rect width="98" height="29" fill="#E92020" fill-opacity="0.8"/>
<path d="M23.44 7.1L23.16 15.8L23.4 21H20.6L20.84 16.14L20.6 7.6L23.44 7.1ZM37.2152 7.16L36.9552 15.8L37.1752 20.56L34.8152 21.06L28.8552 11.42V15.8L29.1352 21H26.6352L26.8752 16.14L26.6352 7.26L29.0352 7.14L34.9752 16.92L34.7752 7.46L37.2152 7.16ZM43.5102 21L43.7502 16.14L43.5102 7.6L46.3502 7.1L46.0702 15.8L46.2102 19.04L50.3102 18.72L50.0902 21H43.5102ZM54.8658 7.1L54.5858 15.8L54.8258 21H52.0258L52.2658 16.14L52.0258 7.6L54.8658 7.1ZM62.3809 18.5H62.6209L63.6209 15.06L65.7209 7.08L68.1409 7.44L65.7609 15.38L64.2009 20.84L60.5009 21.1L59.0809 15.76L56.7609 7.58L59.6009 7.08L61.4209 14.8L62.3809 18.5ZM70.0336 21L70.2736 16.14L70.0336 7.2H77.5336L77.3136 9.34H72.8136L72.6936 12.88H76.6936L76.4736 15H72.6136L72.5936 15.8L72.7336 18.88H77.5736L77.3536 21H70.0336Z" fill="white"/>
</svg>
