<svg width="60" height="60" viewBox="0 0 60 60" fill="none" xmlns="http://www.w3.org/2000/svg">
<path d="M30 5C16.25 5 5 16.25 5 30C5 43.75 16.25 55 30 55C43.75 55 55 43.75 55 30C55 16.25 43.75 5 30 5Z" fill="#1976D2"/>
<path d="M31.5 41.5C20.25 41.5 13.875 33.875 13.625 21H19.25C19.375 30.375 23.625 34.375 26.875 35.125V21H32.125V29.125C35.375 28.75 38.75 25.125 39.875 21H45.125C44.25 26 40.5 29.75 37.875 31.25C40.5 32.5 44.75 35.75 46.25 41.5H40.375C39.125 37.625 36 34.625 31.875 34.125V41.5H31.5Z" fill="white"/>
</svg>
