<svg width="60" height="60" viewBox="0 0 60 60" fill="none" xmlns="http://www.w3.org/2000/svg">
<path d="M6.08496 54.1288L9.45246 41.835C7.37496 38.2375 6.28246 34.155 6.28371 29.9738C6.28996 16.8925 16.935 6.25 30.0175 6.25C36.3662 6.2525 42.3237 8.72375 46.805 13.2075C51.285 17.6925 53.7525 23.6525 53.75 29.9925C53.745 43.0737 43.0975 53.7175 30.0175 53.7175H30.0075C26.0362 53.7162 22.1325 52.72 18.6662 50.8287L6.08496 54.1288Z" fill="white"/>
<path d="M6.0849 54.7538C5.9199 54.7538 5.7599 54.6887 5.64115 54.5687C5.4849 54.41 5.42365 54.1788 5.4824 53.965L8.78115 41.92C6.73615 38.2875 5.6574 34.1625 5.6599 29.975C5.6649 16.5475 16.5912 5.625 30.0174 5.625C36.5299 5.6275 42.6487 8.16375 47.2474 12.7663C51.8461 17.37 54.3774 23.4875 54.3749 29.9925C54.3699 43.4188 43.4424 54.3425 30.0174 54.3425C26.0312 54.3412 22.0874 53.3575 18.5874 51.4962L6.24365 54.7325C6.19115 54.7475 6.13865 54.7538 6.0849 54.7538Z" fill="white"/>
<path d="M30.0175 6.25C36.3662 6.2525 42.3237 8.72375 46.805 13.2075C51.285 17.6925 53.7525 23.6525 53.75 29.9925C53.745 43.0737 43.0975 53.7175 30.0175 53.7175H30.0075C26.0362 53.7162 22.1325 52.72 18.6662 50.8287L6.08499 54.1288L9.45249 41.835C7.37499 38.2375 6.28249 34.155 6.28374 29.9738C6.28999 16.8925 16.935 6.25 30.0175 6.25ZM30.0175 5C16.2475 5 5.03999 16.2025 5.03374 29.9738C5.03249 34.1825 6.09499 38.33 8.10999 42.0013L4.87874 53.8C4.76124 54.2313 4.88124 54.6912 5.19624 55.0088C5.43374 55.2487 5.75499 55.38 6.08499 55.38C6.19124 55.38 6.29749 55.3662 6.40249 55.3387L18.5112 52.1637C22.0462 53.9987 26.0087 54.9675 30.0075 54.9688C43.7875 54.9688 54.995 43.765 55.0012 29.9938C55.0037 23.32 52.4075 17.045 47.6912 12.325C42.9725 7.60375 36.6962 5.0025 30.0175 5Z" fill="#CFD8DC"/>
<path d="M43.97 16.0399C40.245 12.3124 35.2938 10.2587 30.0238 10.2574C19.1438 10.2574 10.295 19.1024 10.29 29.9749C10.2888 33.7012 11.3313 37.3287 13.3063 40.4699L13.7763 41.2162L11.7825 48.4924L19.2488 46.5349L19.97 46.9624C22.9975 48.7599 26.47 49.7099 30.01 49.7112H30.0175C40.89 49.7112 49.7388 40.8649 49.7425 29.9912C49.7438 24.7224 47.695 19.7674 43.97 16.0399Z" fill="#40C351"/>
<path fill-rule="evenodd" clip-rule="evenodd" d="M24.085 20.0562C23.6413 19.0687 23.1738 19.0487 22.7501 19.0312C22.4038 19.0162 22.0088 19.0175 21.6138 19.0175C21.2188 19.0175 20.5763 19.1662 20.0325 19.76C19.4888 20.3537 17.9563 21.7875 17.9563 24.705C17.9563 27.6225 20.0813 30.4425 20.3775 30.8375C20.6738 31.2325 24.48 37.4112 30.5075 39.7887C35.5163 41.7637 36.5363 41.3712 37.6238 41.2725C38.7113 41.1737 41.1325 39.8387 41.6263 38.4537C42.12 37.0687 42.12 35.8825 41.9725 35.635C41.8238 35.3875 41.4288 35.24 40.8363 34.9425C40.2438 34.645 37.3275 33.2112 36.7838 33.0137C36.24 32.8162 35.845 32.7175 35.4488 33.3112C35.0538 33.9037 33.9175 35.24 33.5713 35.635C33.225 36.0312 32.8788 36.0812 32.2863 35.7837C31.6938 35.4862 29.7838 34.8612 27.5175 32.8412C25.755 31.27 24.565 29.3287 24.2188 28.735C23.8725 28.1425 24.1813 27.8212 24.4788 27.525C24.745 27.2587 25.0713 26.8325 25.3688 26.4862C25.665 26.14 25.7638 25.8925 25.9613 25.4975C26.1588 25.1012 26.06 24.755 25.9113 24.4587C25.765 24.1612 24.6125 21.2287 24.085 20.0562Z" fill="white"/>
</svg>
