<svg width="901" height="430" viewBox="0 0 901 430" fill="none" xmlns="http://www.w3.org/2000/svg">
<g filter="url(#filter0_i_94_86)">
<path d="M1.16 197L30.74 154.66L3.364 113.48H22.04L45.704 150.832V113.48H61.48V150.832L85.144 113.48H103.82L76.444 154.66L106.024 197H86.652L61.48 160.112V197H45.704V160.112L20.532 197H1.16ZM121.084 197V113.48H175.604V128.212H136.86V146.076H168.644V160.808H136.86V182.268H175.604V197H121.084ZM195.306 197V113.48H211.082V147.816H248.434V113.48H264.21V197H248.434V162.548H211.082V197H195.306ZM322.137 198.74C313.785 198.74 306.574 196.923 300.503 193.288C294.471 189.653 289.812 184.569 286.525 178.034C283.277 171.499 281.653 163.901 281.653 155.24C281.653 146.579 283.277 138.981 286.525 132.446C289.812 125.911 294.471 120.827 300.503 117.192C306.574 113.557 313.785 111.74 322.137 111.74C331.727 111.74 339.769 114.118 346.265 118.874C352.8 123.63 357.401 130.068 360.069 138.188L344.177 142.596C342.631 137.531 340.021 133.606 336.347 130.822C332.674 127.999 327.937 126.588 322.137 126.588C316.84 126.588 312.413 127.767 308.855 130.126C305.337 132.485 302.688 135.81 300.909 140.102C299.131 144.394 298.241 149.44 298.241 155.24C298.241 161.04 299.131 166.086 300.909 170.378C302.688 174.67 305.337 177.995 308.855 180.354C312.413 182.713 316.84 183.892 322.137 183.892C327.937 183.892 332.674 182.481 336.347 179.658C340.021 176.835 342.631 172.911 344.177 167.884L360.069 172.292C357.401 180.412 352.8 186.85 346.265 191.606C339.769 196.362 331.727 198.74 322.137 198.74ZM378.64 197V113.48H394.416V151.992L426.2 113.48H445.456L410.54 154.66L447.66 197H427.708L394.416 158.952V197H378.64ZM471.561 197L483.161 173.568L454.625 113.48H472.489L491.397 156.98L511.001 113.48H527.821L488.381 197H471.561ZM541.697 197V113.48H557.473V147.352H571.393V163.128H557.473V197H541.697ZM605.265 198.74C599.736 198.74 594.767 197.754 590.359 195.782C585.951 193.81 582.201 190.949 579.107 187.198C576.014 183.409 573.636 178.827 571.973 173.452C570.349 168.077 569.537 162.007 569.537 155.24C569.537 148.435 570.349 142.364 571.973 137.028C573.636 131.653 576.014 127.091 579.107 123.34C582.201 119.551 585.951 116.67 590.359 114.698C594.767 112.726 599.736 111.74 605.265 111.74C610.795 111.74 615.763 112.726 620.171 114.698C624.579 116.67 628.33 119.551 631.423 123.34C634.517 127.091 636.875 131.653 638.499 137.028C640.162 142.364 640.993 148.435 640.993 155.24C640.993 162.007 640.162 168.077 638.499 173.452C636.875 178.827 634.517 183.409 631.423 187.198C628.33 190.949 624.579 193.81 620.171 195.782C615.763 197.754 610.795 198.74 605.265 198.74ZM605.265 183.892C608.513 183.892 611.336 183.215 613.733 181.862C616.131 180.47 618.103 178.517 619.649 176.004C621.196 173.452 622.356 170.417 623.129 166.898C623.903 163.379 624.289 159.493 624.289 155.24C624.289 150.987 623.903 147.101 623.129 143.582C622.356 140.063 621.196 137.047 619.649 134.534C618.103 131.982 616.131 130.029 613.733 128.676C611.336 127.284 608.513 126.588 605.265 126.588C602.017 126.588 599.195 127.284 596.797 128.676C594.4 130.029 592.428 131.982 590.881 134.534C589.335 137.047 588.175 140.063 587.401 143.582C586.628 147.101 586.241 150.987 586.241 155.24C586.241 159.493 586.628 163.379 587.401 166.898C588.175 170.417 589.335 173.452 590.881 176.004C592.428 178.517 594.4 180.47 596.797 181.862C599.195 183.215 602.017 183.892 605.265 183.892ZM41.18 326.74C34.916 326.74 29.3093 325.793 24.36 323.898C19.4493 321.965 15.2733 319.045 11.832 315.14C8.42933 311.235 5.83867 306.324 4.06 300.408L19.488 296.58C20.9573 301.027 23.49 304.7 27.086 307.6C30.682 310.5 35.032 311.931 40.136 311.892C43.732 311.815 47.154 311.099 50.402 309.746C53.6887 308.393 56.3373 306.324 58.348 303.54C59.8173 301.684 60.9387 299.654 61.712 297.45C62.524 295.207 63.104 292.907 63.452 290.548H34.22V275.816H63.568C62.872 271.563 61.5187 267.831 59.508 264.622C57.4973 261.413 54.868 258.919 51.62 257.14C48.372 255.361 44.544 254.511 40.136 254.588C34.916 254.627 30.4693 256.096 26.796 258.996C23.1613 261.896 20.648 265.763 19.256 270.596L3.48 268.392C5.568 259.267 9.87933 252.21 16.414 247.222C22.9487 242.234 31.204 239.74 41.18 239.74C49.2613 239.74 56.2407 241.577 62.118 245.25C68.034 248.885 72.5967 253.969 75.806 260.504C79.0153 267.039 80.62 274.617 80.62 283.24C80.62 291.36 79.0347 298.707 75.864 305.28C72.732 311.853 68.208 317.073 62.292 320.94C56.4147 324.807 49.3773 326.74 41.18 326.74ZM97.9747 325V241.48H113.751V275.816H151.103V241.48H166.879V325H151.103V290.548H113.751V325H97.9747ZM188.962 325V241.48H243.482V256.212H204.738V274.076H236.522V288.808H204.738V310.268H243.482V325H188.962ZM263.184 325V241.48H298.448C299.26 241.48 300.343 241.519 301.696 241.596C303.088 241.635 304.325 241.751 305.408 241.944C310.396 242.717 314.475 244.361 317.646 246.874C320.855 249.387 323.214 252.558 324.722 256.386C326.23 260.175 326.984 264.409 326.984 269.088C326.984 273.767 326.211 278.02 324.664 281.848C323.156 285.637 320.797 288.789 317.588 291.302C314.417 293.815 310.357 295.459 305.408 296.232C304.325 296.387 303.088 296.503 301.696 296.58C300.304 296.657 299.221 296.696 298.448 296.696H278.96V325H263.184ZM278.96 281.964H297.752C298.564 281.964 299.453 281.925 300.42 281.848C301.387 281.771 302.276 281.616 303.088 281.384C305.215 280.804 306.858 279.837 308.018 278.484C309.178 277.092 309.971 275.565 310.396 273.902C310.86 272.201 311.092 270.596 311.092 269.088C311.092 267.58 310.86 265.995 310.396 264.332C309.971 262.631 309.178 261.103 308.018 259.75C306.858 258.358 305.215 257.372 303.088 256.792C302.276 256.56 301.387 256.405 300.42 256.328C299.453 256.251 298.564 256.212 297.752 256.212H278.96V281.964ZM344.429 325V241.48H398.949V256.212H360.205V325H344.429ZM482.331 325H466.323V269.32L430.015 325H414.007V241.48H430.015V297.16L466.323 241.48H482.331V325ZM504.315 325V241.48H520.091V275.352H534.011V291.128H520.091V325H504.315ZM567.883 326.74C562.353 326.74 557.385 325.754 552.977 323.782C548.569 321.81 544.818 318.949 541.725 315.198C538.631 311.409 536.253 306.827 534.591 301.452C532.967 296.077 532.155 290.007 532.155 283.24C532.155 276.435 532.967 270.364 534.591 265.028C536.253 259.653 538.631 255.091 541.725 251.34C544.818 247.551 548.569 244.67 552.977 242.698C557.385 240.726 562.353 239.74 567.883 239.74C573.412 239.74 578.381 240.726 582.789 242.698C587.197 244.67 590.947 247.551 594.041 251.34C597.134 255.091 599.493 259.653 601.117 265.028C602.779 270.364 603.611 276.435 603.611 283.24C603.611 290.007 602.779 296.077 601.117 301.452C599.493 306.827 597.134 311.409 594.041 315.198C590.947 318.949 587.197 321.81 582.789 323.782C578.381 325.754 573.412 326.74 567.883 326.74ZM567.883 311.892C571.131 311.892 573.953 311.215 576.351 309.862C578.748 308.47 580.72 306.517 582.267 304.004C583.813 301.452 584.973 298.417 585.747 294.898C586.52 291.379 586.907 287.493 586.907 283.24C586.907 278.987 586.52 275.101 585.747 271.582C584.973 268.063 583.813 265.047 582.267 262.534C580.72 259.982 578.748 258.029 576.351 256.676C573.953 255.284 571.131 254.588 567.883 254.588C564.635 254.588 561.812 255.284 559.415 256.676C557.017 258.029 555.045 259.982 553.499 262.534C551.952 265.047 550.792 268.063 550.019 271.582C549.245 275.101 548.859 278.987 548.859 283.24C548.859 287.493 549.245 291.379 550.019 294.898C550.792 298.417 551.952 301.452 553.499 304.004C555.045 306.517 557.017 308.47 559.415 309.862C561.812 311.215 564.635 311.892 567.883 311.892Z" fill="#A4A4A4"/>
<path d="M5.04 77V25.16H25.056C25.56 25.16 26.124 25.184 26.748 25.232C27.396 25.256 28.044 25.328 28.692 25.448C31.404 25.856 33.696 26.804 35.568 28.292C37.464 29.756 38.892 31.604 39.852 33.836C40.836 36.068 41.328 38.54 41.328 41.252C41.328 43.94 40.836 46.4 39.852 48.632C38.868 50.864 37.428 52.724 35.532 54.212C33.66 55.676 31.38 56.612 28.692 57.02C28.044 57.116 27.396 57.188 26.748 57.236C26.124 57.284 25.56 57.308 25.056 57.308H10.332V77H5.04ZM10.332 52.268H24.912C25.344 52.268 25.848 52.244 26.424 52.196C27 52.148 27.564 52.064 28.116 51.944C29.892 51.56 31.344 50.828 32.472 49.748C33.624 48.668 34.476 47.384 35.028 45.896C35.604 44.408 35.892 42.86 35.892 41.252C35.892 39.644 35.604 38.096 35.028 36.608C34.476 35.096 33.624 33.8 32.472 32.72C31.344 31.64 29.892 30.908 28.116 30.524C27.564 30.404 27 30.332 26.424 30.308C25.848 30.26 25.344 30.236 24.912 30.236H10.332V52.268ZM47.0869 77L64.9429 25.16H71.9629L89.8189 77H84.3109L67.3549 28.112H69.4429L52.5949 77H47.0869ZM55.0429 64.436V59.468H81.8269V64.436H55.0429ZM115.109 78.08C111.581 78.08 108.521 77.564 105.929 76.532C103.361 75.5 101.249 74.144 99.5934 72.464C97.9374 70.76 96.7014 68.924 95.8854 66.956L100.709 64.148C101.285 65.78 102.197 67.268 103.445 68.612C104.693 69.956 106.301 71.024 108.269 71.816C110.237 72.608 112.577 73.004 115.289 73.004C118.097 73.004 120.473 72.56 122.417 71.672C124.385 70.784 125.873 69.536 126.881 67.928C127.889 66.32 128.393 64.448 128.393 62.312C128.393 59.96 127.829 58.136 126.701 56.84C125.573 55.544 124.061 54.632 122.165 54.104C120.269 53.552 118.157 53.24 115.829 53.168C114.077 53.096 112.829 53.048 112.085 53.024C111.341 53 110.849 52.988 110.609 52.988C110.369 52.988 110.141 52.988 109.925 52.988V47.876C110.093 47.876 110.537 47.876 111.257 47.876C111.977 47.876 112.745 47.876 113.561 47.876C114.377 47.852 115.025 47.828 115.505 47.804C118.937 47.636 121.637 46.736 123.605 45.104C125.573 43.472 126.557 41.264 126.557 38.48C126.557 35.528 125.513 33.236 123.425 31.604C121.361 29.972 118.685 29.156 115.397 29.156C112.301 29.156 109.685 29.9 107.549 31.388C105.437 32.852 103.709 34.82 102.365 37.292L98.0454 34.088C99.6774 31.16 101.981 28.76 104.957 26.888C107.933 25.016 111.461 24.08 115.541 24.08C117.725 24.08 119.813 24.38 121.805 24.98C123.821 25.58 125.597 26.468 127.133 27.644C128.693 28.82 129.917 30.308 130.805 32.108C131.717 33.884 132.173 35.972 132.173 38.372C132.173 41.18 131.549 43.628 130.301 45.716C129.077 47.804 127.493 49.376 125.549 50.432C128.189 51.224 130.253 52.616 131.741 54.608C133.253 56.6 134.009 59.204 134.009 62.42C134.009 65.588 133.229 68.348 131.669 70.7C130.109 73.052 127.901 74.876 125.045 76.172C122.213 77.444 118.901 78.08 115.109 78.08ZM145.074 77V25.16H177.078V30.236H150.366V45.32H165.09C165.594 45.32 166.158 45.344 166.782 45.392C167.43 45.416 168.078 45.476 168.726 45.572C171.39 45.932 173.658 46.844 175.53 48.308C177.426 49.772 178.866 51.62 179.85 53.852C180.858 56.084 181.362 58.52 181.362 61.16C181.362 63.8 180.858 66.236 179.85 68.468C178.866 70.7 177.426 72.548 175.53 74.012C173.658 75.476 171.39 76.388 168.726 76.748C168.078 76.82 167.43 76.88 166.782 76.928C166.158 76.976 165.594 77 165.09 77H145.074ZM150.366 71.924H164.946C165.378 71.924 165.882 71.9 166.458 71.852C167.034 71.804 167.598 71.732 168.15 71.636C170.814 71.108 172.77 69.836 174.018 67.82C175.29 65.78 175.926 63.56 175.926 61.16C175.926 58.736 175.29 56.516 174.018 54.5C172.77 52.484 170.814 51.212 168.15 50.684C167.598 50.564 167.034 50.492 166.458 50.468C165.882 50.42 165.378 50.396 164.946 50.396H150.366V71.924ZM200.875 77L206.707 64.724L188.275 25.16H194.143L209.479 59.036L225.103 25.16H230.755L206.635 77H200.875ZM233.112 85.64V71.924C235.128 71.924 236.748 71.42 237.972 70.412C239.196 69.38 240.132 68.012 240.78 66.308C241.428 64.604 241.92 62.696 242.256 60.584C242.592 58.448 242.88 56.288 243.12 54.104C243.456 50.912 243.72 47.828 243.912 44.852C244.128 41.876 244.308 38.792 244.452 35.6C244.62 32.408 244.812 28.916 245.028 25.124L276.996 25.16V71.924H280.704V85.64H275.448V77H238.404V85.64H233.112ZM243.228 71.924H271.704V30.236L249.96 30.2C249.816 33.128 249.672 35.96 249.528 38.696C249.384 41.432 249.216 44.192 249.024 46.976C248.832 49.76 248.58 52.664 248.268 55.688C248.004 58.448 247.692 60.86 247.332 62.924C246.972 64.988 246.468 66.752 245.82 68.216C245.196 69.68 244.332 70.916 243.228 71.924ZM331.414 77H326.086V34.484L297.538 77H292.21V25.16H297.538V67.64L326.086 25.16H331.414V77Z" fill="#FCBBBB"/>
<path d="M21.636 409.08C18.108 409.08 15.048 408.564 12.456 407.532C9.888 406.5 7.776 405.144 6.12 403.464C4.464 401.76 3.228 399.924 2.412 397.956L7.236 395.148C7.812 396.78 8.724 398.268 9.972 399.612C11.22 400.956 12.828 402.024 14.796 402.816C16.764 403.608 19.104 404.004 21.816 404.004C24.624 404.004 27 403.56 28.944 402.672C30.912 401.784 32.4 400.536 33.408 398.928C34.416 397.32 34.92 395.448 34.92 393.312C34.92 390.96 34.356 389.136 33.228 387.84C32.1 386.544 30.588 385.632 28.692 385.104C26.796 384.552 24.684 384.24 22.356 384.168C20.604 384.096 19.356 384.048 18.612 384.024C17.868 384 17.376 383.988 17.136 383.988C16.896 383.988 16.668 383.988 16.452 383.988V378.876C16.62 378.876 17.064 378.876 17.784 378.876C18.504 378.876 19.272 378.876 20.088 378.876C20.904 378.852 21.552 378.828 22.032 378.804C25.464 378.636 28.164 377.736 30.132 376.104C32.1 374.472 33.084 372.264 33.084 369.48C33.084 366.528 32.04 364.236 29.952 362.604C27.888 360.972 25.212 360.156 21.924 360.156C18.828 360.156 16.212 360.9 14.076 362.388C11.964 363.852 10.236 365.82 8.892 368.292L4.572 365.088C6.204 362.16 8.508 359.76 11.484 357.888C14.46 356.016 17.988 355.08 22.068 355.08C24.252 355.08 26.34 355.38 28.332 355.98C30.348 356.58 32.124 357.468 33.66 358.644C35.22 359.82 36.444 361.308 37.332 363.108C38.244 364.884 38.7 366.972 38.7 369.372C38.7 372.18 38.076 374.628 36.828 376.716C35.604 378.804 34.02 380.376 32.076 381.432C34.716 382.224 36.78 383.616 38.268 385.608C39.78 387.6 40.536 390.204 40.536 393.42C40.536 396.588 39.756 399.348 38.196 401.7C36.636 404.052 34.428 405.876 31.572 407.172C28.74 408.444 25.428 409.08 21.636 409.08ZM48.0009 408L65.8569 356.16H72.8769L90.7329 408H85.2249L68.2689 359.112H70.3569L53.5089 408H48.0009ZM55.9569 395.436V390.468H82.7409V395.436H55.9569ZM127.884 408V362.064L118.128 367.932V361.992L127.884 356.16H133.248V408H127.884ZM168.517 408V356.16H208.225V408H202.933V361.236H173.809V408H168.517ZM221.898 408V356.16H241.914C242.418 356.16 242.982 356.184 243.606 356.232C244.254 356.256 244.902 356.328 245.55 356.448C248.262 356.856 250.554 357.804 252.426 359.292C254.322 360.756 255.75 362.604 256.71 364.836C257.694 367.068 258.186 369.54 258.186 372.252C258.186 374.94 257.694 377.4 256.71 379.632C255.726 381.864 254.286 383.724 252.39 385.212C250.518 386.676 248.238 387.612 245.55 388.02C244.902 388.116 244.254 388.188 243.606 388.236C242.982 388.284 242.418 388.308 241.914 388.308H227.19V408H221.898ZM227.19 383.268H241.77C242.202 383.268 242.706 383.244 243.282 383.196C243.858 383.148 244.422 383.064 244.974 382.944C246.75 382.56 248.202 381.828 249.33 380.748C250.482 379.668 251.334 378.384 251.886 376.896C252.462 375.408 252.75 373.86 252.75 372.252C252.75 370.644 252.462 369.096 251.886 367.608C251.334 366.096 250.482 364.8 249.33 363.72C248.202 362.64 246.75 361.908 244.974 361.524C244.422 361.404 243.858 361.332 243.282 361.308C242.706 361.26 242.202 361.236 241.77 361.236H227.19V383.268ZM289.939 409.08C284.779 409.08 280.423 407.94 276.871 405.66C273.319 403.356 270.631 400.176 268.807 396.12C266.983 392.064 266.071 387.384 266.071 382.08C266.071 376.776 266.983 372.096 268.807 368.04C270.631 363.984 273.319 360.816 276.871 358.536C280.423 356.232 284.779 355.08 289.939 355.08C295.123 355.08 299.479 356.232 303.007 358.536C306.559 360.816 309.247 363.984 311.071 368.04C312.919 372.096 313.843 376.776 313.843 382.08C313.843 387.384 312.919 392.064 311.071 396.12C309.247 400.176 306.559 403.356 303.007 405.66C299.479 407.94 295.123 409.08 289.939 409.08ZM289.939 404.004C293.995 404.004 297.379 403.08 300.091 401.232C302.803 399.384 304.831 396.816 306.175 393.528C307.543 390.216 308.227 386.4 308.227 382.08C308.227 377.76 307.543 373.956 306.175 370.668C304.831 367.38 302.803 364.812 300.091 362.964C297.379 361.116 293.995 360.18 289.939 360.156C285.883 360.156 282.511 361.08 279.823 362.928C277.135 364.776 275.107 367.356 273.739 370.668C272.395 373.956 271.711 377.76 271.687 382.08C271.663 386.4 272.323 390.204 273.667 393.492C275.035 396.756 277.075 399.324 279.787 401.196C282.499 403.044 285.883 403.98 289.939 404.004ZM324.652 408V356.16H356.656V361.236H329.944V376.32H344.668C345.172 376.32 345.736 376.344 346.36 376.392C347.008 376.416 347.656 376.476 348.304 376.572C350.968 376.932 353.236 377.844 355.108 379.308C357.004 380.772 358.444 382.62 359.428 384.852C360.436 387.084 360.94 389.52 360.94 392.16C360.94 394.8 360.436 397.236 359.428 399.468C358.444 401.7 357.004 403.548 355.108 405.012C353.236 406.476 350.968 407.388 348.304 407.748C347.656 407.82 347.008 407.88 346.36 407.928C345.736 407.976 345.172 408 344.668 408H324.652ZM329.944 402.924H344.524C344.956 402.924 345.46 402.9 346.036 402.852C346.612 402.804 347.176 402.732 347.728 402.636C350.392 402.108 352.348 400.836 353.596 398.82C354.868 396.78 355.504 394.56 355.504 392.16C355.504 389.736 354.868 387.516 353.596 385.5C352.348 383.484 350.392 382.212 347.728 381.684C347.176 381.564 346.612 381.492 346.036 381.468C345.46 381.42 344.956 381.396 344.524 381.396H329.944V402.924ZM371.706 408V356.16H376.998V379.524H405.654V356.16H410.91V408H405.654V384.6H376.998V408H371.706ZM445.583 409.08C440.423 409.08 436.067 407.94 432.515 405.66C428.963 403.356 426.275 400.176 424.451 396.12C422.627 392.064 421.715 387.384 421.715 382.08C421.715 376.776 422.627 372.096 424.451 368.04C426.275 363.984 428.963 360.816 432.515 358.536C436.067 356.232 440.423 355.08 445.583 355.08C450.767 355.08 455.123 356.232 458.651 358.536C462.203 360.816 464.891 363.984 466.715 368.04C468.563 372.096 469.487 376.776 469.487 382.08C469.487 387.384 468.563 392.064 466.715 396.12C464.891 400.176 462.203 403.356 458.651 405.66C455.123 407.94 450.767 409.08 445.583 409.08ZM445.583 404.004C449.639 404.004 453.023 403.08 455.735 401.232C458.447 399.384 460.475 396.816 461.819 393.528C463.187 390.216 463.871 386.4 463.871 382.08C463.871 377.76 463.187 373.956 461.819 370.668C460.475 367.38 458.447 364.812 455.735 362.964C453.023 361.116 449.639 360.18 445.583 360.156C441.527 360.156 438.155 361.08 435.467 362.928C432.779 364.776 430.751 367.356 429.383 370.668C428.039 373.956 427.355 377.76 427.331 382.08C427.307 386.4 427.967 390.204 429.311 393.492C430.679 396.756 432.719 399.324 435.431 401.196C438.143 403.044 441.527 403.98 445.583 404.004ZM480.296 408V356.16H512.696V361.236H485.588V379.164H508.376V384.24H485.588V402.924H512.696V408H480.296ZM559.569 409.08C556.041 409.08 552.981 408.564 550.389 407.532C547.821 406.5 545.709 405.144 544.053 403.464C542.397 401.76 541.161 399.924 540.345 397.956L545.169 395.148C545.745 396.78 546.657 398.268 547.905 399.612C549.153 400.956 550.761 402.024 552.729 402.816C554.697 403.608 557.037 404.004 559.749 404.004C562.557 404.004 564.933 403.56 566.877 402.672C568.845 401.784 570.333 400.536 571.341 398.928C572.349 397.32 572.853 395.448 572.853 393.312C572.853 390.96 572.289 389.136 571.161 387.84C570.033 386.544 568.521 385.632 566.625 385.104C564.729 384.552 562.617 384.24 560.289 384.168C558.537 384.096 557.289 384.048 556.545 384.024C555.801 384 555.309 383.988 555.069 383.988C554.829 383.988 554.601 383.988 554.385 383.988V378.876C554.553 378.876 554.997 378.876 555.717 378.876C556.437 378.876 557.205 378.876 558.021 378.876C558.837 378.852 559.485 378.828 559.965 378.804C563.397 378.636 566.097 377.736 568.065 376.104C570.033 374.472 571.017 372.264 571.017 369.48C571.017 366.528 569.973 364.236 567.885 362.604C565.821 360.972 563.145 360.156 559.857 360.156C556.761 360.156 554.145 360.9 552.009 362.388C549.897 363.852 548.169 365.82 546.825 368.292L542.505 365.088C544.137 362.16 546.441 359.76 549.417 357.888C552.393 356.016 555.921 355.08 560.001 355.08C562.185 355.08 564.273 355.38 566.265 355.98C568.281 356.58 570.057 357.468 571.593 358.644C573.153 359.82 574.377 361.308 575.265 363.108C576.177 364.884 576.633 366.972 576.633 369.372C576.633 372.18 576.009 374.628 574.761 376.716C573.537 378.804 571.953 380.376 570.009 381.432C572.649 382.224 574.713 383.616 576.201 385.608C577.713 387.6 578.469 390.204 578.469 393.42C578.469 396.588 577.689 399.348 576.129 401.7C574.569 404.052 572.361 405.876 569.505 407.172C566.673 408.444 563.361 409.08 559.569 409.08ZM585.934 408L603.79 356.16H610.81L628.666 408H623.158L606.202 359.112H608.29L591.442 408H585.934ZM593.89 395.436V390.468H620.674V395.436H593.89ZM638.767 408V356.16H644.059V379.524H672.715V356.16H677.971V408H672.715V384.6H644.059V408H638.767ZM726.972 408H721.716V388.308H704.472L702.636 387.876C698.796 387.132 695.844 385.32 693.78 382.44C691.716 379.56 690.684 376.164 690.684 372.252C690.684 369.54 691.176 367.068 692.16 364.836C693.144 362.604 694.572 360.756 696.444 359.292C698.34 357.804 700.632 356.856 703.32 356.448C703.992 356.328 704.64 356.256 705.264 356.232C705.888 356.184 706.452 356.16 706.956 356.16H726.972V408ZM695.58 408H689.496L700.728 384.96L705.804 386.904L695.58 408ZM721.716 383.268V361.236H707.1C706.692 361.236 706.188 361.26 705.588 361.308C705.012 361.332 704.448 361.404 703.896 361.524C702.12 361.908 700.656 362.64 699.504 363.72C698.376 364.8 697.536 366.096 696.984 367.608C696.432 369.096 696.156 370.644 696.156 372.252C696.156 373.86 696.432 375.408 696.984 376.896C697.536 378.384 698.376 379.668 699.504 380.748C700.656 381.828 702.12 382.56 703.896 382.944C704.448 383.064 705.012 383.148 705.588 383.196C706.188 383.244 706.692 383.268 707.1 383.268H721.716ZM754.466 408V361.236H736.358V356.16H777.866V361.236H759.758V408H754.466ZM826.442 408H821.114V365.484L792.566 408H787.238V356.16H792.566V398.64L821.114 356.16H826.442V408ZM840.128 408V356.16H872.528V361.236H845.42V379.164H868.208V384.24H845.42V402.924H872.528V408H840.128Z" fill="#FCBBBB"/>
</g>
<defs>
<filter id="filter0_i_94_86" x="1.15997" y="24.08" width="871.368" height="389" filterUnits="userSpaceOnUse" color-interpolation-filters="sRGB">
<feFlood flood-opacity="0" result="BackgroundImageFix"/>
<feBlend mode="normal" in="SourceGraphic" in2="BackgroundImageFix" result="shape"/>
<feColorMatrix in="SourceAlpha" type="matrix" values="0 0 0 0 0 0 0 0 0 0 0 0 0 0 0 0 0 0 127 0" result="hardAlpha"/>
<feOffset dy="4"/>
<feGaussianBlur stdDeviation="2"/>
<feComposite in2="hardAlpha" operator="arithmetic" k2="-1" k3="1"/>
<feColorMatrix type="matrix" values="0 0 0 0 0 0 0 0 0 0 0 0 0 0 0 0 0 0 0.25 0"/>
<feBlend mode="normal" in2="shape" result="effect1_innerShadow_94_86"/>
</filter>
</defs>
</svg>
